<svg xmlns="http://www.w3.org/2000/svg" version="1.1" xmlns:xlink="http://www.w3.org/1999/xlink" viewBox="0 0 6.959505068849387 5.9363892757458405"><g transform="matrix(0.8467193500588105,0,0,0.8467193500588105,3.479967260067676,5.185215547391637)"><g transform="matrix(1,0,0,1,0,0)"><path d=" M -2.1910474946315044 -1.906488043435965 Q -2.181265957963633 -1.8660056825807099 -2.175248259725196 -1.8269667621562014 Q -2.169230561486759 -1.7879278417316928 -2.1679317596822685 -1.7663741155138748 Q -2.166632957877778 -1.744820389296057 -2.1692074369929872 -1.7090101664918722 Q -2.1717819161081966 -1.6731999436876874 -2.1812004385646127 -1.6424056027345517 Q -2.190618961021029 -1.6116112617814158 -2.212352522001093 -1.575377267699534 Q -2.234086082981157 -1.5391432736176522 -2.267302556258656 -1.5117632461705293 Q -2.3445290004699837 -1.4482567400906425 -2.4789414859822156 -1.4275375765355174 Q -2.568879252023488 -1.413674018568485 -2.6424040325174394 -1.431177065540837 Q -2.71592881301139 -1.4486801125131887 -2.75965528781615 -1.4829181819848847 Q -2.8033817626209103 -1.5171562514565806 -2.8340353190300855 -1.5650452844335525 Q -2.8843888792366688 -1.6422755827271756 -2.897338356458622 -1.7262833861723206 Q -2.915924664941896 -1.8468592922935874 -2.904232502869668 -1.902287564376314 Q -2.8989938819557923 -1.927378535878444 -2.883110256094138 -1.9490513397922662 Q -2.867226630232483 -1.970724143706088 -2.831646854655716 -1.9762086281765623 Q -2.7960670790789486 -1.9816931126470365 -2.739043019774629 -1.9727764619048882 Q -2.6820189604703097 -1.9638598111627399 -2.6769915163723748 -1.9312450168840365 Q -2.6754680484639097 -1.92136174589049 -2.6815310874394074 -1.8556712628782486 Q -2.6875941264149055 -1.789980779866007 -2.684090150225436 -1.76724925658085 Q -2.678758012545808 -1.7326578081034374 -2.636480759295237 -1.7143853190122624 Q -2.5942035060446664 -1.6961128299210873 -2.523043954891132 -1.707081798862036 Q -2.4518844037375973 -1.7180507678029846 -2.4156267757666114 -1.7453936720729697 Q -2.3793691477956256 -1.772736576342955 -2.3847012854752534 -1.8073280248203676 Q -2.388509955246416 -1.8320362023042338 -2.4187493755836327 -1.8936485180996099 Q -2.448988795920849 -1.955260833894986 -2.450664610620161 -1.9661324319878868 Q -2.4553873611364025 -1.996770572067881 -2.4017187853130015 -2.022750063384838 Q -2.3480502094896005 -2.0487295547017954 -2.3134587610121877 -2.054061692381423 Q -2.2788673125347754 -2.059393830061051 -2.255331150994805 -2.0412679066372794 Q -2.231794989454835 -2.0231419832135082 -2.2163120103771052 -1.985056193752364 Q -2.2008290312993757 -1.94697040429122 -2.1910474946315044 -1.906488043435965 M -2.1985008500316043 -2.3609914427569163 Q -2.20027918007806 -2.299990725201744 -2.210114468943602 -2.239282265388211 Q -2.219949757809144 -2.1785738055746786 -2.2296583232374645 -2.1624185043604016 Q -2.2393668886657854 -2.1462632031461246 -2.25417383008372 -2.14866205408894 L -2.86125842821905 -2.2470149427443595 Q -2.885936663915608 -2.2510130276490514 -2.8968972602079 -2.311544964086914 Q -2.9078578565001925 -2.372076900524776 -2.896983065559431 -2.439201701619414 Q -2.881790342921602 -2.532978997266335 -2.8373695186677974 -2.5257824444378896 L -2.620201044538086 -2.490599297276601 L -2.6059678622773825 -2.578453816356348 L -2.802406618421985 -2.610278572197695 Q -2.827084854118543 -2.614276657102387 -2.837965488712742 -2.6753021582541803 Q -2.8488461233069406 -2.7363276594059736 -2.8379713323661786 -2.803452460500612 Q -2.822938533124537 -2.89624262671967 -2.7785177088707327 -2.8890460738912247 L -2.1507033927502945 -2.7873347939158633 Q -2.1378707101880843 -2.7852557897654235 -2.1397290019326336 -2.7237615074963206 Q -2.1415872936771834 -2.6622672252272173 -2.1513426208446313 -2.6020523301276155 Q -2.1610979480120798 -2.5418374350280137 -2.1708065134404 -2.5256821338137367 Q -2.180515078868721 -2.5095268325994597 -2.195322020286656 -2.511925683542275 L -2.421374659267128 -2.5485481412692526 L -2.435607841527831 -2.4606936221895057 L -2.209555202547359 -2.424071164462528 Q -2.1967225199851486 -2.4219921603120884 -2.1985008500316043 -2.3609914427569163 M -1.8613526110032015 -3.31260504213076 L -2.050998431433109 -2.933381542340112 Q -2.072915047473358 -2.8895561850529856 -2.0867795367324216 -2.8774824144080995 Q -2.1006440259914854 -2.865408643763214 -2.114059951691626 -2.8721178119388 L -2.680212016237569 -3.1552447089485445 Q -2.7034662874511466 -3.1668739337862277 -2.702793602822831 -3.1928122740452114 Q -2.702120918194516 -3.2187506143041955 -2.674836967613798 -3.273308712151435 L -2.4950312605080835 -3.632855520915209 Q -2.4856384250622625 -3.6516378168954065 -2.4234779693182764 -3.620552004348523 Q -2.3613175135742908 -3.5894661918016393 -2.3326975952759668 -3.565090993820961 Q -2.3040776769776423 -3.5407157958402835 -2.3107868451532285 -3.5272998701401423 Q -2.3398599072474364 -3.469164192106199 -2.4203678361235785 -3.337241967336928 L -2.3604433679962824 -3.3072743494859758 Q -2.2996126122772202 -3.4423284836642662 -2.279485107750461 -3.482576260764689 Q -2.2674086050344058 -3.5067249270249423 -2.211061717093814 -3.4785464206874797 Q -2.1547148291532228 -3.450367914350017 -2.1303434078591614 -3.4264402353128145 Q -2.1059719865651 -3.402512556275612 -2.1140229883758037 -3.3864134454354433 L -2.1985578645479165 -3.226317053500567 L -2.141316581560649 -3.1976912692847317 Q -2.075117366330636 -3.3591306198252067 -2.045597026358056 -3.4181606929058264 Q -2.036204190912235 -3.4369429888860235 -1.9735965376449112 -3.405633537399954 Q -1.9109888843775873 -3.374324085913884 -1.8828161636026013 -3.3501725268723925 Q -1.854643442827615 -3.3260209678309005 -1.8613526110032015 -3.31260504213076 M -1.4626074757143983 -3.775161509095788 L -1.7485869601418358 -3.4621251941311866 Q -1.7816364760308556 -3.425948827543296 -1.798270686974296 -3.4181192026296023 Q -1.814904897917736 -3.4102895777159086 -1.8259792958528045 -3.4204067764574453 L -2.293318888712693 -3.8473525633502943 Q -2.3125145118001447 -3.864889041168958 -2.304785458924121 -3.8896582103443587 Q -2.297056406048097 -3.9144273795197595 -2.2559131311658476 -3.959463264455705 L -1.984772204892664 -4.256257129115539 Q -1.9706081266545126 -4.271761286224635 -1.919296749555362 -4.224884932055515 Q -1.8679853724562117 -4.178008577886395 -1.8471079900591336 -4.146745422187614 Q -1.8262306076620558 -4.115482266488834 -1.8363478064035925 -4.104407868553765 Q -1.8801890009502515 -4.056418810835136 -1.9936567195737545 -3.951489897611098 L -1.9441910754637821 -3.9062997432322337 Q -1.8487978070546474 -4.019614015688191 -1.8184462108300372 -4.052837209493396 Q -1.8002352530952712 -4.072771125776519 -1.7537227817679837 -4.030278891062065 Q -1.7072103104406962 -3.9877866563476108 -1.6902978207004569 -3.9581139805197334 Q -1.6733853309602176 -3.928441304691856 -1.6855259694500617 -3.915152027169774 L -1.8105600070472896 -3.784218878417691 L -1.7633092425243309 -3.7410521637871343 Q -1.655547548666231 -3.87828341874326 -1.6110318742034695 -3.9270107696575614 Q -1.5968677959653181 -3.9425149267666573 -1.5451872722683322 -3.8953013326394856 Q -1.493506748571346 -3.8480877385123144 -1.472998512772104 -3.8171618227715856 Q -1.4524902769728616 -3.786235907030856 -1.4626074757143983 -3.775161509095788 M -1.160567472869174 -4.017112984303038 Q -1.1539963884283324 -4.005895994988997 -1.202586209399857 -3.968159682265637 Q -1.2511760303713815 -3.930423369542277 -1.3042410182801178 -3.899337085456757 Q -1.3573060061888542 -3.8682508013712367 -1.3759440757335943 -3.8654450281007415 Q -1.3945821452783347 -3.862639254830247 -1.402164165786998 -3.8755819348079874 L -1.7271801115917045 -4.430391483187133 Q -1.7403222804733878 -4.452825461815217 -1.6893660596102738 -4.495424916686724 Q -1.6384098387471597 -4.5380243715582305 -1.5521253055622226 -4.588571174949321 Q -1.4658407723772855 -4.63911797834041 -1.4401341010707736 -4.653597862674856 Q -1.4144274297642616 -4.668077747009304 -1.378397212388554 -4.685707932370192 Q -1.3423669950128465 -4.703338117731079 -1.31855185347701 -4.70917669920504 Q -1.2947367119411735 -4.715015280679 -1.2645854716104465 -4.719929820995118 Q -1.2344342312797196 -4.724844361311235 -1.2117830153766889 -4.717832056546445 Q -1.189131799473658 -4.7108197517816555 -1.1640578866820561 -4.697693484325934 Q -1.1190259372639546 -4.674238771972005 -1.0788412285680384 -4.60564256808998 Q -1.038656519872122 -4.537046364207955 -1.0339739133179866 -4.476626390723526 Q -1.029291306763851 -4.416206417239096 -1.0531033964157182 -4.369806154455234 Q -0.8623864691151683 -4.271759973290251 -0.8376185354535343 -4.2294805520296315 Q -0.8128506017919004 -4.1872011307690125 -0.9828311321662266 -4.087623928088566 Q -1.032013316081641 -4.058812250155645 -1.0535232535518815 -4.052006180068852 Q -1.0750331910221222 -4.045200109982059 -1.0888032195897037 -4.056835672420033 L -1.2490145811455575 -4.2017263885767955 L -1.2641884198209077 -4.193996277332159 L -1.160567472869174 -4.017112984303038 M -1.3420304970431858 -4.326874458436963 L -1.3195965184151022 -4.340016627318646 Q -1.2695514891678386 -4.369333773285478 -1.3150436122198192 -4.446989853151922 Q -1.3382951417797204 -4.486680738416993 -1.3612731370676927 -4.495240045196512 Q -1.384251132355665 -4.503799351976031 -1.4015080389926524 -4.493689991297813 L -1.4299819349436818 -4.477009546178754 L -1.3420304970431858 -4.326874458436963 M -0.3451258394685332 -4.296085582715249 Q -0.3941895562535345 -4.270293109099072 -0.47666539871212377 -4.251908729567906 Q -0.5591412411707131 -4.233524350036739 -0.6363666298131877 -4.230653923410131 Q -0.7135920184556623 -4.227783496783523 -0.7495001516291923 -4.237196571307399 Q -0.7854082848027221 -4.246609645831275 -0.7888893507494519 -4.262226373397398 Q -0.8010730815630058 -4.31688491987883 -0.7986191346079543 -4.379416736934965 Q -0.7961651876529026 -4.441948553991098 -0.774692187249483 -4.446735019667852 Q -0.7707880053579521 -4.447605286154534 -0.6878061142151114 -4.438439821498679 Q -0.6048242230722706 -4.429274356842823 -0.5657824041569621 -4.4379770217096475 Q -0.5267405852416536 -4.446679686576472 -0.5168773558512612 -4.457586872556022 Q -0.5070141264608687 -4.468494058535573 -0.5104951924075984 -4.484110786101696 Q -0.5139762583543283 -4.499727513667819 -0.5381688415286305 -4.5071416164021 Q -0.5623614247029328 -4.51455571913638 -0.5966378082139332 -4.516648452613636 Q -0.6309141917249335 -4.518741186090892 -0.6724081416209888 -4.527933689668463 Q -0.7139020915170442 -4.537126193246033 -0.750898057798927 -4.551419495134323 Q -0.78789402408081 -4.565712797022612 -0.8181784726618893 -4.600456172997609 Q -0.8484629212429686 -4.635199548972605 -0.8597763855698402 -4.685953913562506 Q -0.9080761755807152 -4.902636008542468 -0.6494241252667963 -4.96029116328518 Q -0.5527956234514076 -4.98183025883057 -0.4798007666329697 -4.98529448717982 Q -0.4068059098145318 -4.98875871552907 -0.37464028572859726 -4.9800482260386705 Q -0.3424746616426629 -4.971337736548271 -0.33921116231760373 -4.956697054455031 Q -0.32789769799073215 -4.90594268986513 -0.33875681477612213 -4.842049579261237 Q -0.34961593156151216 -4.778156468657344 -0.3720649774378145 -4.77315243635892 Q -0.3759691593293454 -4.772282169872238 -0.39940025932780054 -4.7762801134514286 Q -0.47012869256650724 -4.790226035134768 -0.5125866706369052 -4.780761887092096 Q -0.5550446487073032 -4.771297739049425 -0.5684328205636204 -4.760117092630468 Q -0.5818209924199376 -4.748936446211513 -0.5782311431623726 -4.732831695908947 Q -0.5746412939048076 -4.716726945606383 -0.5508838439738465 -4.711264933817867 Q -0.5271263940428854 -4.705802922029353 -0.4935555998899971 -4.704577450714144 Q -0.45998480573710876 -4.703351979398936 -0.4185996391518887 -4.694647498557806 Q -0.37721447256666857 -4.685943017716678 -0.33989215635227976 -4.670185647619064 Q -0.302569840137891 -4.6544282775214505 -0.2717414750026351 -4.617244787864247 Q -0.24091310986737935 -4.580061298207044 -0.22851181243215468 -4.524426706252729 Q -0.2154578151319182 -4.465863977879766 -0.23505446032942245 -4.411293184436724 Q -0.2470723256640759 -4.377878054438502 -0.27156722417380386 -4.349878055384964 Q -0.2960621226835318 -4.321878056331426 -0.3451258394685332 -4.296085582715249 M 0.1651222549892874 -4.705164802281863 Q 0.18338132071048135 -4.795334678177248 0.22383010392965827 -4.856524104846306 Q 0.2642788871488352 -4.917713531515364 0.3202428713632006 -4.947192888205331 Q 0.4309922643395774 -5.005369962344239 0.5799685810363002 -4.975202810283136 Q 0.6417153438777052 -4.962699319626232 0.6876628053467988 -4.94523275772796 Q 0.7336102668158926 -4.9277661958296886 0.7756998334061527 -4.896286545510092 Q 0.8177893999964125 -4.864806895190496 0.839849300487471 -4.822588880193049 Q 0.8900237472921131 -4.727744139232635 0.859658127125345 -4.577787715189222 Q 0.8292925069585766 -4.427831291145811 0.7676232490062072 -4.350022855718769 Q 0.7059539910538377 -4.272214420291728 0.6202143165907466 -4.256926901756557 Q 0.6496325073725289 -4.175467893346642 0.6472508901045471 -4.163706605186375 Q 0.6428845917799137 -4.142144243559217 0.6182459745149465 -4.1313188780101715 Q 0.5936073572499794 -4.120493512461127 0.5588944307228985 -4.120380676626919 Q 0.49456758250784666 -4.120142771776867 0.4524229666002211 -4.128676900320468 Q 0.4102783506925955 -4.13721102886407 0.3957935583703813 -4.148816665054401 Q 0.38130876604816716 -4.160422301244732 0.37568775598188253 -4.188088241420962 L 0.3518022057954509 -4.286792245859949 Q 0.23222910949939696 -4.311005354751097 0.17962274410048762 -4.413994773234339 Q 0.12701637870157825 -4.516984191717582 0.1651222549892874 -4.705164802281863 M 0.4664448245958334 -4.414581407977047 Q 0.4968281523431914 -4.408428896701428 0.5209569975626207 -4.452006974084176 Q 0.5450858427820499 -4.495585051466925 0.5654288236127278 -4.596046054502544 Q 0.5857718044434059 -4.696507057538163 0.5867627763719936 -4.741709579311143 Q 0.587753748300581 -4.786912101084123 0.5784733114611278 -4.801545060185718 Q 0.5691928746216746 -4.816178019287311 0.5486106203412062 -4.820345849506279 Q 0.528028366060738 -4.824513679725248 0.5138854606324885 -4.8151340088329615 Q 0.480488411755243 -4.7912878953909175 0.4530005791206195 -4.655543027874495 Q 0.42551274648599596 -4.519798160358073 0.4307871216672357 -4.47026603980537 Q 0.43606149684847545 -4.420733919252667 0.4664448245958334 -4.414581407977047 M 1.359372744455713 -3.939604507794684 Q 1.2519751594221509 -3.920001989360595 1.1172279722415135 -3.9995975014633904 Q 0.9824807850608761 -4.079193013566186 0.9465211390044949 -4.183477019317307 Q 0.9105614929481136 -4.287761025068427 0.9837995360331139 -4.411745657362433 L 1.1704548263955799 -4.727734268833959 Q 1.1831697644311703 -4.749259378607224 1.2419884629472209 -4.737743706465402 Q 1.3008071614632715 -4.726228034323579 1.3653824907830658 -4.688083220216808 Q 1.4170427542389012 -4.6575673689313914 1.4208430902829088 -4.6286095125543625 Q 1.4228813919793815 -4.606499665739105 1.4162696242008745 -4.595306608657007 L 1.2647075628166378 -4.338727300159691 Q 1.2072360428957696 -4.241433803984535 1.1959907706867177 -4.205684064783467 Q 1.1847454984776657 -4.169934325582401 1.2088536214237222 -4.155693594982539 Q 1.2329617443697787 -4.141452864382678 1.2574744893122964 -4.168204038850036 Q 1.2819872342548142 -4.194955213317396 1.3409845467399533 -4.294831722665344 L 1.4864434378671068 -4.541078978471493 Q 1.499158375902697 -4.562604088244758 1.5579770744187478 -4.551088416102935 Q 1.6167957729347984 -4.539572743961113 1.680510097863662 -4.501936527375766 Q 1.7347533744922892 -4.469894883526078 1.7376927061453662 -4.441445624670473 Q 1.7388700034509084 -4.419844375376639 1.7322582356724012 -4.408651318294542 L 1.5400083725742755 -4.083191658522778 Q 1.466770329489275 -3.959207026228773 1.359372744455713 -3.939604507794684 M 1.7967481854438232 -3.4072322802100485 L 1.512621692424705 -3.721951418434366 Q 1.479786319410703 -3.758322262238591 1.4735902901329796 -3.775631485825731 Q 1.467394260855256 -3.7929407094128704 1.4785281926320597 -3.802992354213075 L 1.948380113613175 -4.227171764781712 Q 1.9676789286929681 -4.244594615768733 1.9915913888496113 -4.234522662171891 Q 2.0155038490062545 -4.2244507085750485 2.05638053786042 -4.1791727193493795 L 2.3257646185059047 -3.8807833477310414 Q 2.3398369212261914 -3.8651958432435163 2.288249703993668 -3.8186232223359013 Q 2.236662486761144 -3.7720506014282864 2.2035389325574655 -3.754271958147204 Q 2.170415378353787 -3.7364933148661215 2.1603637335535826 -3.7476272466429252 Q 2.116806606086029 -3.795874284342408 2.0232591270104914 -3.9188940760777697 L 1.9735275650741015 -3.873996729303522 Q 2.0771573664801757 -3.768162593692474 2.1073123008807895 -3.734760798362063 Q 2.125405261521158 -3.7147197211638168 2.0786427480585825 -3.672502813002957 Q 2.0318802345960068 -3.6302859048420975 2.000720564386122 -3.6163010933520834 Q 1.9695608941762377 -3.6023162818620693 1.957498920415992 -3.6156769999942338 L 1.8391781216340037 -3.752706882047719 L 1.7916733460529746 -3.7098198642335127 Q 1.917921833275245 -3.5893776811161007 1.9621490703961455 -3.5403883812981647 Q 1.9762213731164322 -3.5248008768106396 1.9242630248246817 -3.477893201076351 Q 1.872304676532931 -3.430985525342063 1.8395522533884794 -3.4135419368876536 Q 1.8067998302440278 -3.3960983484332448 1.7967481854438232 -3.4072322802100485 M 2.082342432936744 -2.867424820233246 L 1.8949386608725718 -3.247761284717155 Q 1.8732811494783634 -3.2917152629240216 1.8720464587384964 -3.310058532501087 Q 1.8708117679986296 -3.3284018020781523 1.8842670674497113 -3.335031652504951 L 2.4520807042853585 -3.614811340515849 Q 2.4754032233339003 -3.626303081255633 2.495657208600011 -3.610085002428591 Q 2.5159111938661223 -3.5938669236015484 2.5428725856017698 -3.5391487058338162 L 2.72055257703997 -3.1785466805448266 Q 2.7298343676374883 -3.1597092613133126 2.66749148018081 -3.1289909543358125 Q 2.605148592724131 -3.098272647358313 2.5684294538037533 -3.0902131909904185 Q 2.5317103148833753 -3.0821537346225245 2.5250804644565767 -3.095609034073606 Q 2.4963511126071163 -3.15391533169496 2.439945907749589 -3.297802276429291 L 2.3798455702014243 -3.268188944522924 Q 2.4506422141929356 -3.1380819301096374 2.470531765473331 -3.0977160317563923 Q 2.4824654962415686 -3.0734964927444453 2.4259532385470255 -3.0456511209518915 Q 2.3694409808524823 -3.0178057491593377 2.3356469367430464 -3.0128597828503647 Q 2.3018528926336104 -3.0079138165413917 2.293897072121452 -3.0240601758826897 L 2.2174849568250385 -3.1881887493728884 L 2.1600756791670896 -3.1599013875518813 Q 2.2486432036422235 -3.009565784289226 2.2778145455201373 -2.9503624667044663 Q 2.287096336117655 -2.931525047472952 2.224304938679274 -2.9005857454812256 Q 2.161513541240893 -2.869646443489499 2.1252429123022174 -2.8618079821358315 Q 2.0889722833635425 -2.8539695207821643 2.082342432936744 -2.867424820233246 M 2.1976935943191256 -2.498016118059835 Q 2.184853898849328 -2.49598087354311 2.1674025542894357 -2.5549762171987913 Q 2.1499512097295432 -2.6139715608544725 2.140322937592729 -2.6747131971154383 Q 2.1306946654559153 -2.7354548333764037 2.1348685953979074 -2.753834939710137 Q 2.1390425253398995 -2.77221504604387 2.1538575585742814 -2.7745634051016297 L 2.788928649888117 -2.8752297300442544 Q 2.814608040827712 -2.879300219077704 2.8357268997518084 -2.8163300372632603 Q 2.856845758675905 -2.753359855448817 2.872501485727635 -2.654592967219604 Q 2.8881572127793653 -2.5558260789903917 2.8922818178184797 -2.5266115683275157 Q 2.896406422857594 -2.497397057664639 2.89970570703141 -2.4574206305614026 Q 2.9030049912052256 -2.4174442034581656 2.899770404886337 -2.3931380838306797 Q 2.8965358185674486 -2.3688319642031934 2.8901333430719784 -2.338961271082178 Q 2.8837308675765083 -2.309090577961162 2.8689515784646726 -2.290548123610435 Q 2.8541722893528374 -2.272005669259708 2.832816595235586 -2.253433261532911 Q 2.794573879600992 -2.22003423907878 2.716054203458768 -2.2075879360726547 Q 2.6375345273165443 -2.1951416330665294 2.579557805562915 -2.2127824872040778 Q 2.521581083809286 -2.230423341341626 2.487037835202345 -2.269497168587995 Q 2.3262738536169603 -2.1275783811607694 2.277878078384646 -2.1199070749054214 Q 2.229482303152332 -2.1122357686500735 2.198640520860424 -2.306806538461622 Q 2.1897167564409377 -2.363103664752273 2.1912108409010176 -2.3856151665152865 Q 2.192704925361098 -2.4081266682782996 2.20855595273696 -2.4167141551708466 L 2.401839519905513 -2.5131634302463985 L 2.400165715189011 -2.530110358515882 L 2.1976935943191256 -2.498016118059835 M 2.552266723061998 -2.5542201781755463 L 2.556337212095448 -2.528540787235951 Q 2.5654175337854515 -2.471255992063008 2.654307733191742 -2.485346146409565 Q 2.69974050177718 -2.4925477808533607 2.716079572847712 -2.5108312366687175 Q 2.7324186439182445 -2.529114692484074 2.7292874985078983 -2.5488680701299167 L 2.7241211085808272 -2.5814611432455568 L 2.552266723061998 -2.5542201781755463 M 2.160568637934864 -1.6369745942287062 Q 2.154413639962272 -1.6920619430481711 2.167325134529059 -1.775569687048664 Q 2.180236629095846 -1.8590774310491565 2.205684936824635 -1.9320458052515521 Q 2.2311332445534244 -2.0050141794539478 2.252975977910967 -2.035029092405201 Q 2.2748187112685097 -2.065044005356454 2.2906308284757033 -2.0625992253201395 Q 2.345973238700882 -2.054042495193038 2.4033180268542695 -2.0289860534735293 Q 2.4606628150076566 -2.0039296117540206 2.457301242457724 -1.982187950594129 Q 2.456690047448645 -1.9782349212923303 2.4179359982322017 -1.9042881588930916 Q 2.3791819490157584 -1.8303413964938526 2.3730699989249717 -1.790811103475868 Q 2.366958048834185 -1.7512808104578832 2.3735246510732706 -1.7381229331581955 Q 2.3800912533123566 -1.7249650558585081 2.3959033705195503 -1.7225202758221934 Q 2.4117154877267444 -1.7200754957858786 2.427430276844797 -1.7399071725423996 Q 2.44314506596285 -1.75973884929892 2.4575758693795207 -1.7908997528921957 Q 2.4720066727961907 -1.8220606564854713 2.4956780566166663 -1.8573581859744277 Q 2.5193494404371415 -1.8926557154633838 2.5461334604219323 -1.9219066346532887 Q 2.5729174804067227 -1.9511575538431933 2.6163034746373652 -1.9667108655361636 Q 2.6596894688680073 -1.9822641772291336 2.7110788497913876 -1.9743186421111107 Q 2.930471976041203 -1.9403973191072448 2.8899803066897407 -1.6785091278630957 Q 2.874853230215044 -1.5806716526435836 2.8514985034835076 -1.511427109614582 Q 2.828143776751971 -1.44218256658558 2.808318225015547 -1.4153973561449964 Q 2.788492673279123 -1.3886121457044125 2.7736688133973786 -1.3909041269884574 Q 2.7222794324739983 -1.39884966210648 2.666727562377628 -1.432229891716176 Q 2.611175692281258 -1.4656101213258714 2.6146900635834602 -1.4883400398112128 Q 2.615301258592539 -1.4922930691130114 2.627557147071518 -1.5126595415024757 Q 2.666301327159355 -1.5734533611663304 2.6729480728830857 -1.6164425548233887 Q 2.679594818606816 -1.659431748480447 2.674057140663399 -1.6759721270430736 Q 2.6685194627199817 -1.6925125056057 2.652213216850063 -1.6950336850181493 Q 2.6359069709801446 -1.6975548644305989 2.6221686965129907 -1.6774175901695387 Q 2.608430422045837 -1.6572803159084788 2.5950642753307513 -1.6264607422256583 Q 2.581698128615665 -1.595641168542838 2.5585208734579146 -1.5602672396777466 Q 2.535343618300164 -1.5248933108126557 2.507077212327199 -1.4958715897511554 Q 2.4788108063542342 -1.4668498686896552 2.432954168809968 -1.4516785538773593 Q 2.3870975312657015 -1.4365072390650635 2.3307668637150734 -1.4452167679444345 Q 2.271471424188096 -1.4543846930806144 2.2277835765614245 -1.4925078090307662 Q 2.20103903309106 -1.515868660782399 2.183881334499258 -1.5488779530958203 Q 2.1667236359074566 -1.5818872454092414 2.160568637934864 -1.6369745942287062" fill="#230c43" fill-rule="nonzero"></path></g><g transform="matrix(1,0,0,1,0,0)"><g transform="matrix(1,0,0,1,0,0)" clip-path="url(#SvgjsClipPath99609)"><g clip-path="url(#a91d362b6-d440-4c4d-9282-b7ece89ce54607dec017-1986-44e6-8914-9ab9e32a4a34)"><path d=" M 1.0345948768255924 -1.27516000820679 C 0.9961391582553865 -1.2110679753341427 0.9596484782960575 -1.1458172066558645 0.9251737978187466 -1.0794988277968591 C 0.9111597290182074 -1.0525841138221073 0.8971707750363065 -1.0243048280346376 0.8959736353478491 -0.9936773067044249 C 0.8956178420837972 -0.9841755336526852 0.8938137609448984 -0.9736021950056823 0.8949229987681193 -0.9642050670316049 C 0.8958689902701868 -0.9565701621653608 0.8992469333771269 -0.9242641337894444 0.9037550433228203 -0.8824772613773204 L 0.9037550433228203 -0.8824563323617878 C 0.9122312946134696 -0.8041441420424018 0.910594645598831 -0.40619565490496345 0.9095230800035683 -0.18750000000000044 L 0.3169431200203978 -0.18750000000000044 C 0.3195425037495303 -0.45244877923171645 0.32841640633529656 -0.8571950106140998 0.3287721995993482 -1.0615208034544712 C 0.3287721995993482 -1.0702482029315097 0.32879312861488064 -1.0790802474862113 0.32680068633618986 -1.0875564987768604 C 0.3243268767002523 -1.0981298374238628 0.31889370426802377 -1.1076316104756025 0.31419304737943166 -1.1173217446671355 C 0.25321008192092864 -1.242916766877471 0.25549971622018064 -1.4038399673066118 0.2450100936353079 -1.540552482567794 C 0.24480080347998334 -1.543214653343524 0.24460825653708462 -1.5459019389378925 0.24456639850601958 -1.5486059677446873 C 0.24454549500454315 -1.5487236444103187 0.24454549500454315 -1.548844084343108 0.24456639850601958 -1.5489617610087394 C 0.2444826824438897 -1.554353075409903 0.24503102265084054 -1.5596816027644693 0.24729554213145333 -1.564528762761788 C 0.2515525038907571 -1.573653813533944 0.260974746683474 -1.5790451279351077 0.26973981838847116 -1.5839969330100896 C 0.30198305971779016 -1.6021842475078034 0.3361768852947351 -1.6226988685327277 0.36953355025038137 -1.6445822471734757 C 0.3699102725299659 -1.644833395359865 0.3702869948095502 -1.6450845435462549 0.3706679028922413 -1.645314762717112 C 0.40540588287303003 -1.6681399470568206 0.43918112813932564 -1.692388304452737 0.46884172895193843 -1.7168710668226175 C 0.47623660604315243 -1.7230011085963954 0.4834020260736551 -1.7294027942627737 0.4903232704944638 -1.7360629740658906 C 0.49065813474298237 -1.7363601660864512 0.4909762557790758 -1.736674101319438 0.49131112002759525 -1.7369880365524248 C 0.4965442173513992 -1.742019282249696 0.5016633568283442 -1.7471677297770816 0.5066646458222117 -1.7524294642122777 C 0.5384893068408827 -1.7856772982871565 0.5669150957370801 -1.8227676996137951 0.5995350593459832 -1.8561201787663348 C 0.5997862075323728 -1.8563922559682569 0.6000373557187626 -1.8566685189732857 0.600330361936217 -1.8569405961752072 C 0.6138839923950428 -1.870783047048381 0.6281910674130373 -1.8839599552276227 0.6437789981816189 -1.8959564669308326 C 0.6747204547448187 -1.9197695008036741 0.715100897313161 -1.9420254159209 0.7509313719047446 -1.9301293634922452 C 0.7524215178106566 -1.9296479961349986 0.7539116637165679 -1.929082912715622 0.7554018096224799 -1.9284759712651804 C 0.756531976461233 -1.927990418104827 0.7576663291030927 -1.9274671927165157 0.7588006817449524 -1.9269230383126712 C 0.7805752295049311 -1.9162869126190714 0.7938525969587285 -1.8940686697298044 0.80589515249611 -1.8730517523321004 C 0.8852956516231842 -1.7344305108543572 0.9562826865062064 -1.5872074439927695 1.0412461179618107 -1.4524455129792133 C 1.0544397693534782 -1.4314662678094683 1.0679933998123037 -1.4095661459562945 1.0711578669608128 -1.3846857322912975 C 1.0761515300668596 -1.3455191726238382 1.054669988524335 -1.3086213182400988 1.0345948768255924 -1.27516000820679" fill="#f18d85" transform="matrix(1,0,0,1,0,0)" fill-rule="nonzero"></path></g><g clip-path="url(#SvgjsClipPath9960707dec017-1986-44e6-8914-9ab9e32a4a34)"><path d=" M 0.8959869266453977 -0.9936876937798731 L 0.6614312637699311 -0.8824709052403423 L 0.9037599630141557 -0.8824709052403423 Z" fill="#211c1d" transform="matrix(1,0,0,1,0,0)" fill-rule="nonzero"></path></g><g clip-path="url(#b91d362b6-d440-4c4d-9282-b7ece89ce54607dec017-1986-44e6-8914-9ab9e32a4a34)"><path d=" M 0.5227590587666804 -1.7170761711748357 C 0.5269197470545348 -1.7080850661020879 0.5312980971039272 -1.6991148900448727 0.5362289731633763 -1.6902661022777452 C 0.5602415119736532 -1.6471799892797612 0.5830421556517071 -1.6034295530725413 0.6046040669079473 -1.5590662897078134 C 0.6173121651392608 -1.532942692520189 0.6225067467944192 -1.4976019568920647 0.594834402457391 -1.479473243637842 L 0.5941604881572455 -1.4790295485085534 C 0.5848010324111261 -1.472901532760647 0.5730054392570276 -1.4697579946276704 0.5590541575030852 -1.4696993933841793 C 0.5312687964821816 -1.4695780050940912 0.5013821623018184 -1.4819637964862054 0.47490277185014085 -1.5045671332612702 C 0.47229968147098145 -1.5067900136017927 0.46975252348530483 -1.5090775708283815 0.46726368118079 -1.511427664552813 C 0.4769914876002812 -1.484956645707348 0.481106132053964 -1.4589586226129176 0.4792183348529355 -1.4349697850096033 C 0.4787327816925824 -1.4290971032511934 0.4778830636619642 -1.4222323861565438 0.4751246194147851 -1.4157318339321594 C 0.46941936978063437 -1.4022451763230377 0.45579458066899825 -1.392052745758726 0.4395662220251233 -1.389156170009033 C 0.42661116141052613 -1.3868456066942483 0.4119692221440119 -1.3887794477294482 0.3960840993548691 -1.3949325782959936 C 0.36200747626490615 -1.4080466994286374 0.33479557026959217 -1.4346600355797228 0.3148962623013225 -1.456375982096211 C 0.3029425931100369 -1.469436110456574 0.29154701209700806 -1.482996293255166 0.28074010895233537 -1.4970201302602626 C 0.2716194758768655 -1.5112734879893246 0.2620358566394536 -1.5252252273423759 0.25200457062626125 -1.5388530465065537 L 0.2453533294900403 -1.5478985670196903 C 0.2048724276471423 -1.603297671134131 0.1691968277704985 -1.6602957520352524 0.235340888459308 -1.71254713221361 C 0.25450349508083514 -1.7276788104435838 0.28324321921001894 -1.7331622125130899 0.30397131619337436 -1.7191104714845915 C 0.28444454470158265 -1.7323376093011107 0.29816142148156155 -1.78794181776777 0.30472894655564975 -1.8038897276035097 C 0.3348499857099767 -1.8770157078739502 0.43568179674229723 -1.85309384312034 0.475208335476915 -1.8046682869813173 C 0.4972549604388159 -1.7776489279289023 0.5088035912096314 -1.7472265109509078 0.5227590587666804 -1.7170761711748357" fill="#f18d85" transform="matrix(1,0,0,1,0,0)" fill-rule="nonzero"></path></g><g clip-path="url(#b91d362b6-d440-4c4d-9282-b7ece89ce54607dec017-1986-44e6-8914-9ab9e32a4a34)"><path d=" M 0.4334089056554711 -1.3726348051477033 C 0.4273646059696947 -1.3726348051477033 0.4211528741596584 -1.3734468509503626 0.41499555779000663 -1.3751128005867472 C 0.3971724081625576 -1.379934845765428 0.381772838533768 -1.390600272080773 0.3677880703549734 -1.4014038298986327 C 0.3127531311107976 -1.4439315894606057 0.26516473559307374 -1.4981754119176545 0.23016305001657544 -1.5582709871175808 C 0.22828781651653784 -1.5617581937488159 0.22951367366984776 -1.5661041798202993 0.23293477145840114 -1.5680974687330624 C 0.23635586924695473 -1.5700907576458256 0.2407412026352802 -1.569014109250531 0.24285021923235717 -1.5656631154036482 C 0.27691009910989406 -1.507187446005935 0.32321763887703114 -1.4544044688330522 0.3767666180184017 -1.4130236193222583 C 0.3895500607056328 -1.4031493097940402 0.403488785050256 -1.3934382465869755 0.4188339392386611 -1.3892901157084405 C 0.43473999104333605 -1.3849829243118585 0.4507674311380996 -1.3877622975745703 0.4606752270911696 -1.3965399266888872 C 0.48250837609463937 -1.415878337040887 0.47108113361391224 -1.4537556693515459 0.462324433515128 -1.4746135262312032 C 0.45225757704401115 -1.4985898064251977 0.44042849746506074 -1.521779155635171 0.4274734368504636 -1.5443573775915964 C 0.4257070279395232 -1.546990247745581 0.4239824770596481 -1.5495812598685004 0.42229141260462444 -1.5521178565510354 L 0.33917810612209065 -1.67693850518667 C 0.3368744420438554 -1.6802743679713101 0.3377112044245003 -1.6848461077867252 0.34104706720914013 -1.6871497718649606 C 0.34438292999377995 -1.6894534359431965 0.34895466980919543 -1.6886166735625516 0.3512583338874309 -1.6852808107779116 C 0.3819067842331758 -1.642430744376738 0.4132500778945989 -1.5986137574579646 0.44000573135130483 -1.552038326292012 C 0.45803817113407863 -1.5252156999856021 0.47882486936092494 -1.4967564246645533 0.5085022133859636 -1.481725205709135 C 0.538154442592363 -1.4667149157692498 0.5823607092000405 -1.4706579422955666 0.5983881492948038 -1.5003101715019662 C 0.6137709757111673 -1.528761075216802 0.5976137757201025 -1.5651817480464016 0.5797822544864404 -1.5970524528992427 L 0.49234082759179243 -1.7533294118801757 C 0.490363276443462 -1.7568691364474427 0.4916256266452941 -1.7613416769251509 0.49516205888556897 -1.7633251096984819 C 0.49870324831366264 -1.7653008087647466 0.5031778718345039 -1.764036696226586 0.5051577567038754 -1.760499692601599 L 0.5925991835985234 -1.604222733620666 C 0.6123812890798115 -1.5688652547801158 0.6300746788109592 -1.5280411170824855 0.611309723484549 -1.4933282519203352 C 0.590966720386991 -1.455706253599172 0.5383009457010905 -1.450185179301707 0.5018719012652781 -1.4686236419858107 C 0.4907627798206444 -1.474249361360938 0.4808005684271901 -1.481553587781769 0.4717634195202707 -1.489807991507774 C 0.47316147775783945 -1.486651895965478 0.47452604957055633 -1.4834874288169688 0.4758655065646342 -1.4802978468498211 C 0.4861416531910756 -1.4558150844799407 0.4990967138056728 -1.4109558325876508 0.47041559091997986 -1.3855438219281289 C 0.4609012604589202 -1.3771178002747577 0.44761133559580357 -1.3726348051477033 0.4334089056554711 -1.3726348051477033" fill="#211c1d" transform="matrix(1,0,0,1,0,0)" fill-rule="nonzero"></path></g><g clip-path="url(#b91d362b6-d440-4c4d-9282-b7ece89ce54607dec017-1986-44e6-8914-9ab9e32a4a34)"><path d=" M 0.7595457546979083 -1.920861995414469 L 0.8344758161072472 -1.7828435095840605 C 0.8585483697726912 -1.7384949256707625 0.8594692464561198 -1.6745316684004363 0.7937102796531077 -1.6742470337891948 C 0.7659249186322044 -1.6741298313022126 0.7360382844518412 -1.6865156226943272 0.7095588940001634 -1.7091189594693916 C 0.7069547767645525 -1.7113406670210414 0.7044075895471071 -1.713628250500161 0.7019198033308132 -1.715979490760934 C 0.7116476097503037 -1.6895042861123635 0.7157622542039868 -1.6635062630179327 0.7138744570029583 -1.6395216112177255 C 0.7133889038426049 -1.6336447436562085 0.7125391858119869 -1.6267842123646656 0.7097807415648076 -1.6202836601402812 C 0.7040754919306573 -1.6067928167280527 0.6904507028190212 -1.5966003861637414 0.6742223441751458 -1.5937079962171543 C 0.6612672835605486 -1.5913932470992633 0.6466253442940344 -1.59333127393757 0.6307402215048921 -1.5994844045041154 C 0.5966635984149289 -1.6125985256367592 0.5694516924196149 -1.6392076759847378 0.549552384451345 -1.6609278083043324 C 0.537598548802874 -1.673986344200057 0.5262029596216229 -1.6875451402001511 0.5153962311023585 -1.7015677706652776 C 0.506275598026888 -1.7158211283943396 0.49669197878947613 -1.729772867747391 0.486660692776284 -1.7434006869115688 L 0.4800094516400628 -1.7524503932278117 C 0.4395285497971648 -1.8078494973422523 0.40385294992052123 -1.8648475782433738 0.4699928248062242 -1.9170947726186252 C 0.48915961723085766 -1.9322306366517052 0.5178993413600417 -1.9377140387212117 0.5386232525402905 -1.923662297692713 C 0.5191006668516052 -1.9368852497061262 0.5328175436315843 -1.9924936439758913 0.5393850687056725 -2.0084415538116316 C 0.5571245022709916 -2.051513467777449 0.6035534303282171 -2.061651482901376 0.6450389249166737 -2.0499563490218335 C 0.7011412439530054 -2.034142384885501 0.7247952173077996 -1.9848754823220731 0.7508727706612537 -1.9368392058719546 L 0.7595457546979083 -1.920861995414469" fill="#f18d85" transform="matrix(1,0,0,1,0,0)" fill-rule="nonzero"></path></g><g clip-path="url(#b91d362b6-d440-4c4d-9282-b7ece89ce54607dec017-1986-44e6-8914-9ab9e32a4a34)"><path d=" M 0.6680650278054943 -1.5771824455527184 C 0.6620207281197175 -1.5771824455527184 0.6558131821127877 -1.577994491355378 0.6496558657431357 -1.5796604409917623 C 0.6318327161156869 -1.584482486170443 0.6164331464868975 -1.5951479124857881 0.6024483783081029 -1.6059514703036477 C 0.5474134390639271 -1.6484792298656208 0.49982504354620305 -1.70272305232267 0.464823357969705 -1.7628228133257027 C 0.46280827289373216 -1.7663239295477253 0.4640000866847356 -1.770795217733394 0.46749045318138416 -1.77282886578126 C 0.47098081967803296 -1.774862513829126 0.47545837350988274 -1.77369445996281 0.4775105271854865 -1.77021494161177 C 0.5115704070630238 -1.71173508641095 0.5578779468301607 -1.6589521092380677 0.6114269259715315 -1.6175712597272733 C 0.6242061828556558 -1.6076969501990552 0.6381490930033855 -1.5979858869919905 0.653490061388684 -1.5938377561134556 C 0.6693961131933592 -1.5895305647168736 0.6854277390912289 -1.5923099379795858 0.6953355350442989 -1.6010875670939022 C 0.7171686840477687 -1.620425977445902 0.7057414415670418 -1.658303309756561 0.6969847414682573 -1.6791611666362183 C 0.6869136991940341 -1.7031458184364254 0.6750846196150835 -1.7263351676463992 0.66212537319738 -1.7489217612090378 C 0.6603589642864398 -1.7515462597568092 0.6586385992096708 -1.7541330860766218 0.6569517205577542 -1.7566696827591568 L 0.5738342282721136 -1.8814903313947915 C 0.5716115182935684 -1.8848260647478319 0.5724751102613628 -1.8893280049317984 0.5757743899952621 -1.8916044736640214 C 0.5790736697291614 -1.893880942396244 0.5835890120886975 -1.8930904110034246 0.5859186418405602 -1.8898284511829266 C 0.6165587205800922 -1.8469867563879663 0.6479020142415153 -1.8031697694691928 0.6746534818951149 -1.7566027099094534 C 0.692690107480995 -1.7297717119968303 0.7134809915109479 -1.7013082508726747 0.7431625213390933 -1.6862770319172573 C 0.7728105647423862 -1.671262556174265 0.8170126455469569 -1.6752055827005816 0.8330484572479333 -1.7048619977100876 C 0.8484312836642969 -1.7333129014249238 0.8322740836732321 -1.7697293884514167 0.8144425624395699 -1.8016000933042577 L 0.7270011355449217 -1.9578770522851907 C 0.7256049010594345 -1.9601736193452872 0.7255743060846427 -1.9630493499397854 0.7269213635830694 -1.9653751029567497 C 0.7282684210814958 -1.9677008559737144 0.7307780606616832 -1.9691053030827832 0.7334648850017986 -1.9690369952110078 C 0.7361517093419148 -1.968968687339232 0.7385867416809222 -1.9674385304804094 0.7398138788538986 -1.965047333006614 L 0.8272553057485463 -1.808770374025681 C 0.8470415970329408 -1.773412895185131 0.8647308009609822 -1.7325887574875005 0.8459658456345722 -1.6978758923253503 C 0.8256270283401206 -1.660253894004187 0.7729570678511135 -1.6547286339036158 0.7365280234153011 -1.6731754681939321 C 0.725423087773774 -1.678797001765953 0.7154608763803194 -1.686101228186784 0.7064237274734 -1.6943598177158958 C 0.7078175999078624 -1.6912037221735998 0.7091863575236856 -1.6880350692219839 0.7105216287146572 -1.6848454872548362 C 0.7208019611442049 -1.6603627248849557 0.7337570217588025 -1.6155034729926658 0.7050717130700028 -1.5900956481362507 C 0.6955573826089432 -1.5816654406797728 0.6822674577458265 -1.5771824455527184 0.6680650278054943 -1.5771824455527184" fill="#211c1d" transform="matrix(1,0,0,1,0,0)" fill-rule="nonzero"></path></g><g clip-path="url(#b91d362b6-d440-4c4d-9282-b7ece89ce54607dec017-1986-44e6-8914-9ab9e32a4a34)"><path d=" M 0.7239664282927143 -1.7247027044348666 C 0.7383321045542 -1.7001320401997502 0.7782186223559759 -1.6819237966865037 0.8027516143631339 -1.7042173840316877 C 0.8070002045162248 -1.708080880298981 0.8101311852398818 -1.7130536143894957 0.8124124479329209 -1.7183235405005703 C 0.8211942628503439 -1.7385995707484247 0.8167531257543543 -1.7639069363302844 0.801600518508848 -1.779984606062326 Z" fill="#f3a8a8" transform="matrix(1,0,0,1,0,0)" fill-rule="nonzero"></path></g><g clip-path="url(#b91d362b6-d440-4c4d-9282-b7ece89ce54607dec017-1986-44e6-8914-9ab9e32a4a34)"><path d=" M 0.6191622901123308 -1.637851475778234 C 0.631242517877671 -1.6172782535098187 0.66477498656379 -1.6020293727928632 0.6854026242725897 -1.6206980546478236 C 0.6889731143224285 -1.6239336804491433 0.6916059844764129 -1.6280985545401045 0.6935230822991869 -1.6325103910143484 C 0.7009068389790416 -1.649488008414286 0.6971731026080492 -1.6706765437393556 0.684431517951883 -1.6841422723329447 Z" fill="#f3a8a8" transform="matrix(1,0,0,1,0,0)" fill-rule="nonzero"></path></g><g clip-path="url(#b91d362b6-d440-4c4d-9282-b7ece89ce54607dec017-1986-44e6-8914-9ab9e32a4a34)"><path d=" M 0.5008170788824415 -1.522151692111649 C 0.5128973066477818 -1.5015742840401272 0.5464297753339007 -1.486329589126278 0.5670574130427004 -1.5049982709812384 C 0.5706279030925392 -1.5082297109794514 0.5732607732465238 -1.5123945850704121 0.5751778710692976 -1.5168106073477632 C 0.5825616277491521 -1.5337882247477004 0.5788278913781599 -1.5549767600727704 0.5660863067219939 -1.5684424886663595 Z" fill="#f3a8a8" transform="matrix(1,0,0,1,0,0)" fill-rule="nonzero"></path></g><g clip-path="url(#b91d362b6-d440-4c4d-9282-b7ece89ce54607dec017-1986-44e6-8914-9ab9e32a4a34)"><path d=" M 0.38516333905002775 -1.4319894931977801 C 0.397243566815368 -1.4114162709293647 0.4307760355014867 -1.3961673902124092 0.4514036732102864 -1.4148360720673696 C 0.4549741632601254 -1.418071697868689 0.4576070334141098 -1.4222365719596506 0.45952413123688385 -1.4266484084338944 C 0.4669078879167381 -1.4436260258338316 0.46317415154574615 -1.4648145611589016 0.4504325668895801 -1.4782802897524907 Z" fill="#f3a8a8" transform="matrix(1,0,0,1,0,0)" fill-rule="nonzero"></path></g><g clip-path="url(#SvgjsClipPath9960707dec017-1986-44e6-8914-9ab9e32a4a34)"><path d=" M 1.01368153972876 -3.8708359525205354 L 0.7564764962440569 -1.4237108113868047 L 0.6898887404259595 -1.430709474180862 L 0.9470937839106619 -3.8778346153145926 Z" fill="#eaa76e" transform="matrix(1,0,0,1,0,0)" fill-rule="nonzero"></path></g><g clip-path="url(#c91d362b6-d440-4c4d-9282-b7ece89ce54607dec017-1986-44e6-8914-9ab9e32a4a34)"><path d=" M 0.9021351375206077 -2.8096879844566067 L 0.8916287717233093 -2.70973519207665 C 0.8742367598158292 -2.721786119220244 0.8514073896730137 -2.737629383978322 0.8288793973538657 -2.7532173147469035 L 0.8349236970396423 -2.8107135062176978 Z" fill="#211c1d" transform="matrix(1,0,0,1,0,0)" fill-rule="nonzero"></path></g><g clip-path="url(#c91d362b6-d440-4c4d-9282-b7ece89ce54607dec017-1986-44e6-8914-9ab9e32a4a34)"><path d=" M 0.913930730674706 -2.9218214638764595 L 0.9002347829102593 -2.7915006699588925 C 0.8762614836514686 -2.8007368424397043 0.8519233510396378 -2.8089966424511212 0.8272804205671833 -2.8162596953338017 C 0.687219262820808 -2.857644730647702 0.5372879813493192 -2.8676278710566887 0.39335914153254214 -2.844028313142279 C 0.27117973465710477 -2.8239908736714945 0.15428281130206245 -2.7806887405348197 0.03189830007440708 -2.7616935660375526 C -0.3504748137037691 -2.702384921821647 -0.6859292604612605 -2.9889617457046143 -1.0718896075017015 -3.0295263636096426 L -1.056690956422024 -3.154568859809921 C -0.9434231243603114 -3.1521201649926223 -0.8301050626613208 -3.1306009512221395 -0.724878158367182 -3.0914176483422544 C -0.5533858050941457 -3.027588336771336 -0.40063329232888023 -2.917024533516418 -0.21788531450248272 -2.8898000701117845 C -0.04292711625726975 -2.8637183309552237 0.129892136600525 -2.918330504085644 0.3015100639667565 -2.95072024852369 C 0.48183446179449385 -2.9847466419763755 0.6799066647937637 -2.9912262651852273 0.8547811469768472 -2.941293819927867 C 0.8748311438569507 -2.9355592696719706 0.8945588338978543 -2.9290922038724387 0.913930730674706 -2.9218214638764595" fill="#7851ae" transform="matrix(1,0,0,1,0,0)" fill-rule="nonzero"></path></g><g clip-path="url(#c91d362b6-d440-4c4d-9282-b7ece89ce54607dec017-1986-44e6-8914-9ab9e32a4a34)"><path d=" M 0.928455467454238 -3.0600324966497667 L 0.913930730674706 -2.9218214638764595 C 0.8944841386639291 -2.9291051904149326 0.8747515594406956 -2.93560125994621 0.8547811469768498 -2.941293819927866 C 0.6799066647937637 -2.9912262651852277 0.4818386475976004 -2.9847466419763755 0.30151424976986285 -2.9507202485236905 C 0.12989632240363158 -2.9183305040856444 -0.0429229304541634 -2.8637225167583304 -0.21788112869937648 -2.889800070111785 C -0.40062910652577377 -2.917024533516418 -0.5533858050941457 -3.0275925225744427 -0.7248739725640756 -3.091421834145361 C -0.8301050626613208 -3.1306009512221395 -0.9434189385572049 -3.1521201649926223 -1.056690956422024 -3.1545688598099213 L -1.0398807711463465 -3.29272966294595 C -0.9273747552500156 -3.290038191548475 -0.8148687393536845 -3.268544092596631 -0.7103492357845432 -3.2296286811155617 C -0.5388568825115068 -3.1657993695446427 -0.3861043697462416 -3.0552564953052577 -0.203356391919844 -3.028011102885092 C -0.02839400787152435 -3.0019502927440636 0.14442105918316384 -3.056558280071377 0.31603480074628876 -3.0889354671001037 C 0.4963633843771329 -3.122978603765215 0.6944355873764025 -3.1294582269740667 0.8693058837563792 -3.079504852701174 C 0.8892759058907724 -3.073811021322315 0.909008434190433 -3.0673149685553476 0.9284554674542358 -3.060032496649767" fill="#5b58b1" transform="matrix(1,0,0,1,0,0)" fill-rule="nonzero"></path></g><g clip-path="url(#c91d362b6-d440-4c4d-9282-b7ece89ce54607dec017-1986-44e6-8914-9ab9e32a4a34)"><path d=" M 0.9447340557353909 -3.21492395480245 L 0.9284512816511317 -3.060036682452873 C 0.9090050731207224 -3.0673202648662152 0.8892724430576535 -3.0738149547270415 0.8693016979532748 -3.0795048527011732 C 0.6944314015732957 -3.1294624127771735 0.4963633843771327 -3.122978603765215 0.31603480074628854 -3.0889354671001037 C 0.14442105918316384 -3.0565624658744834 -0.028398193674631145 -3.0019502927440636 -0.20335639191984423 -3.028015288688198 C -0.3861043697462415 -3.055260681108364 -0.5388610683146133 -3.1658035553477495 -0.7103492357845435 -3.229632866918668 C -0.8148729251567914 -3.2685482783997375 -0.9273789410531219 -3.290038191548475 -1.0398849569494528 -3.2927338487490565 L -1.0210572145764452 -3.4475457766427167 C -0.9094051025138391 -3.444594785452639 -0.7978115916947238 -3.423125801319434 -0.6940748333064968 -3.384520139268245 C -0.5225782942303538 -3.3206908276973266 -0.36982996726819517 -3.2101270244424085 -0.18708198944179755 -3.1828858178253494 C -0.012119605393478006 -3.1568208218812144 0.1606954616612104 -3.2114329950116347 0.3323133890274417 -3.243822739449681 C 0.5126377868551792 -3.2778491329023662 0.7107099898544491 -3.284328756111218 0.8855802862344258 -3.2343711960352186 C 0.9055519536645229 -3.2286877067002417 0.9252859552026906 -3.222200007071999 0.9447340557353905 -3.21492395480245" fill="#72ace1" transform="matrix(1,0,0,1,0,0)" fill-rule="nonzero"></path></g><g clip-path="url(#c91d362b6-d440-4c4d-9282-b7ece89ce54607dec017-1986-44e6-8914-9ab9e32a4a34)"><path d=" M 0.9610419446382892 -3.370074932747736 L 0.9447340557353909 -3.21492395480245 C 0.9252875843999537 -3.2222006182150293 0.9055549521199089 -3.2286883267687827 0.8855844720375334 -3.2343711960352186 C 0.7107099898544487 -3.2843245703081116 0.5126419726582856 -3.2778491329023662 0.3323175748305478 -3.243822739449681 C 0.16069964746431653 -3.2114329950116347 -0.012115419590371879 -3.156820821881215 -0.1870778036386913 -3.182881632022243 C -0.3698257814650886 -3.210127024442409 -0.5225741084272476 -3.3206908276973266 -0.6940706475033904 -3.384520139268245 C -0.7978074058916178 -3.4231216155163278 -0.9094009167107326 -3.4445947854526393 -1.021053028773339 -3.4475415908396103 L -1.0021917999754795 -3.6026423391476188 C -0.8913852201403853 -3.599431828164938 -0.7807167718078052 -3.5780005162596917 -0.6777627586004922 -3.5396920462290637 C -0.5062704053274558 -3.475862734658145 -0.35351789256219035 -3.365298931403227 -0.17077410053889974 -3.3380535389830612 C 0.004188283509419799 -3.311992728842033 0.17700753636721478 -3.366600716169347 0.3486212779303395 -3.3989779031980736 C 0.5289498615611838 -3.433021039863185 0.7270220645604535 -3.4394964772689303 0.9018923609404301 -3.3895431029960372 C 0.9218634973545059 -3.3838544801929427 0.9415961786534557 -3.377359773468619 0.9610419446382883 -3.3700749327477366" fill="#60a531" transform="matrix(1,0,0,1,0,0)" fill-rule="nonzero"></path></g><g clip-path="url(#c91d362b6-d440-4c4d-9282-b7ece89ce54607dec017-1986-44e6-8914-9ab9e32a4a34)"><path d=" M 0.9774712218312764 -3.5263853781535213 L 0.9610419446382892 -3.370074932747736 C 0.9415955700188441 -3.3773592773567476 0.9218629656791555 -3.383855355156495 0.9018923609404321 -3.389547288799143 C 0.7270220645604539 -3.4395006630720366 0.5289540473642906 -3.433021039863185 0.3486254637334465 -3.3989779031980736 C 0.17701172217032157 -3.3666049019724533 0.004188283509420243 -3.311992728842033 -0.17076991473579273 -3.3380535389830612 C -0.35351789256219 -3.365298931403227 -0.5062704053274553 -3.475862734658145 -0.6777585727973854 -3.5396920462290637 C -0.7807167718078043 -3.5780005162596917 -0.8913852201403847 -3.599431828164938 -1.0021917999754792 -3.6026423391476188 L -0.9831966254782117 -3.75887325429438 C -0.8732523210830548 -3.75541159512531 -0.7634838204183709 -3.7340179554480217 -0.6613334814075048 -3.6959815626193158 C -0.48984112813446856 -3.632156436851504 -0.33708861536920287 -3.521592633596586 -0.15434063754280558 -3.4943681701919527 C 0.020617560702407278 -3.4682822452322855 0.19343681356020226 -3.5228944183627053 0.3650505551233272 -3.5552883486038582 C 0.5453791387541713 -3.5893147420565437 0.7434513417534412 -3.5957943652653954 0.9183216381334178 -3.5458577342049287 C 0.938292242872143 -3.5401658005622796 0.958024847211834 -3.5336697227625313 0.9774712218312809 -3.5263853781535195" fill="#fbc834" transform="matrix(1,0,0,1,0,0)" fill-rule="nonzero"></path></g><g clip-path="url(#c91d362b6-d440-4c4d-9282-b7ece89ce54607dec017-1986-44e6-8914-9ab9e32a4a34)"><path d=" M 0.9935823779881696 -3.679677859519524 L 0.9774670360281701 -3.5263811923504145 C 0.958022735076935 -3.5336674106788304 0.9382914485835667 -3.5401635143424643 0.9183216381334178 -3.545853548401822 C 0.7434471559503344 -3.5957901794622886 0.5453791387541709 -3.589310556253437 0.36505055512332674 -3.555284162800752 C 0.19343681356020204 -3.522890232559599 0.020617560702407056 -3.4682822452322855 -0.1543406375428058 -3.4943639843888463 C -0.3370886153692032 -3.5215884477934796 -0.48984531393757513 -3.6321522510483977 -0.661333481407505 -3.695981562619316 C -0.7634880062214778 -3.7340137696449154 -0.8732523210830553 -3.7554074093222036 -0.9832008112813185 -3.75887325429438 L -0.9645614300481031 -3.9120527189765077 C -0.8554710294866711 -3.908356654833474 -0.7465899190805636 -3.886996501581038 -0.6452265110537183 -3.849274043985319 C -0.4737299719775754 -3.7854447324144003 -0.3209816450154167 -3.6748809291594826 -0.13823366718901908 -3.647639722542423 C 0.03672871685930068 -3.6215747265982885 0.20954378391398887 -3.6761868997287084 0.3811575254771138 -3.7085599009543286 C 0.5614861091079577 -3.7426072234225467 0.7595583121072276 -3.7490868466313985 0.9344286084872042 -3.699129286555399 C 0.9544003280836866 -3.6934443888895268 0.9741343290749778 -3.686955293035682 0.9935823779881683 -3.6796778595195243" fill="#f36727" transform="matrix(1,0,0,1,0,0)" fill-rule="nonzero"></path></g><g clip-path="url(#c91d362b6-d440-4c4d-9282-b7ece89ce54607dec017-1986-44e6-8914-9ab9e32a4a34)"><path d=" M 1.006231874975993 -3.7999987698156774 L 0.9935865637912764 -3.6796778595195234 C 0.974138514878085 -3.6869552930356813 0.9544045138867929 -3.6934443888895263 0.9344327942903101 -3.6991292865553986 C 0.759558312107228 -3.7490826608282912 0.5614902949110645 -3.742607223422546 0.38116171128022036 -3.708559900954328 C 0.20954796971709566 -3.676186899728708 0.03673290266240725 -3.621574726598288 -0.13822948138591218 -3.6476397225424226 C -0.3209774592123097 -3.6748809291594817 -0.4737257861744685 -3.7854447324144 -0.6452223252506115 -3.8492740439853184 C -0.7465899190805632 -3.886996501581037 -0.8554710294866708 -3.908356654833473 -0.9645572442449968 -3.912052718976507 L -0.9496515993827735 -4.034705121602978 C -0.8302348225576222 -4.036927783052526 -0.7101776178571768 -4.015002546380713 -0.5995928855867267 -3.970771164954397 C -0.4336341640204744 -3.9043968850947306 -0.2863650533247156 -3.7879645858845086 -0.10911722078025066 -3.760761051495408 C 0.060596166172526056 -3.7347169845668056 0.22902869737471576 -3.7947539585232413 0.39606735614244326 -3.8310574288658588 C 0.5716031952163525 -3.8692152099846533 0.7640957226746665 -3.8781393422076973 0.9334742453789238 -3.826616291769869 C 0.9582064438579159 -3.8191142929861144 0.9824973155218539 -3.810227763650538 1.006231874975994 -3.7999987698156774" fill="#ef2b3b" transform="matrix(1,0,0,1,0,0)" fill-rule="nonzero"></path></g><g clip-path="url(#c91d362b6-d440-4c4d-9282-b7ece89ce54607dec017-1986-44e6-8914-9ab9e32a4a34)"><path d=" M 1.0166545247111611 -3.8472313720693503 L 0.9346964998860194 -3.855845754862514 C 0.9221307189603263 -3.857168468644166 0.9130140397943836 -3.868549667290721 0.9143534967884615 -3.8812661371282484 C 0.9156887679794328 -3.8939826069657757 0.9269695073514326 -3.9032206744218065 0.9395394740802323 -3.9018979606401545 L 1.0214974989053744 -3.893283577846991 C 1.0340674656341742 -3.8919650498684457 1.0431841448001165 -3.88058385122189 1.0418488736091454 -3.8678673813843627 L 1.0418488736091454 -3.8678631955812564 C 1.0405094166150675 -3.8551467257437295 1.0292286772430672 -3.8459086582876982 1.0166545247111611 -3.8472313720693503" fill="#eaa76e" transform="matrix(1,0,0,1,0,0)" fill-rule="nonzero"></path></g><g clip-path="url(#c91d362b6-d440-4c4d-9282-b7ece89ce54607dec017-1986-44e6-8914-9ab9e32a4a34)"><path d=" M 0.8516962100873613 -1.3749830406904455 C 0.7890096227645154 -1.4461793657287925 0.7441838572970771 -1.5328757196704847 0.721722837827633 -1.625005246044405 C 0.7144311688161216 -1.6549253666496204 0.6930584581543664 -1.7240413475440404 0.713719582288018 -1.752098785766866 C 0.7426351101476747 -1.7913658047088807 0.7861381618334609 -1.748628754991583 0.8092479807844111 -1.7221661077523311 C 0.864316406453439 -1.6591153555592202 0.9186523165788305 -1.5937456684451123 0.9773456477380815 -1.5334449888929678 Z" fill="#f18d85" transform="matrix(1,0,0,1,0,0)" fill-rule="nonzero"></path></g><g clip-path="url(#c91d362b6-d440-4c4d-9282-b7ece89ce54607dec017-1986-44e6-8914-9ab9e32a4a34)"><path d=" M 0.6527282452233021 -1.0121785564351264 C 0.6223728010950116 -1.0121785564351264 0.6066592962332351 -1.045137570095656 0.6024232634894637 -1.073370812048954 C 0.595554360591708 -1.1191886128526316 0.6012679818320716 -1.1669318830852955 0.6178856201648504 -1.2103805193306978 C 0.5940691321148339 -1.2456959604454863 0.5662203125485066 -1.2781171839305219 0.5349020735786179 -1.3069888550285662 C 0.5319210652853372 -1.309737532002699 0.5317327235086513 -1.314382359635367 0.5344814004443146 -1.3173633679641186 C 0.5372300773799779 -1.3203443762928706 0.5418749050102152 -1.3205327181294964 0.5448559133744382 -1.317784041232303 C 0.5746550182130274 -1.2903077986511389 0.6014048027362826 -1.259698725137854 0.6246415063787314 -1.2264874896844837 C 0.6337436195451625 -1.2464870875158955 0.6453032333390136 -1.2652740963833873 0.6590529937172134 -1.282414004990343 C 0.7024932583564025 -1.336352263820618 0.7681350226724328 -1.3725050452514016 0.8368910244996941 -1.3809519959203054 C 0.7784906995578977 -1.450658175052741 0.7363229190630827 -1.5341314606024334 0.7145986009403817 -1.6232639519521044 C 0.7137907409408284 -1.6265791080124474 0.7128070772108022 -1.630375631430037 0.7117313258124336 -1.6345446913241042 C 0.7026272040558104 -1.6697640386621404 0.6873908807481743 -1.728716889613994 0.7078134141047558 -1.7564520209976195 C 0.7166287154470308 -1.7684192320790846 0.7274615738866357 -1.7747523521792088 0.7400147974030098 -1.7752755775675206 C 0.7611824037125474 -1.776121109795032 0.7856400512637884 -1.760365746902191 0.8147816124911957 -1.726996524537225 C 0.8279166626393719 -1.7119569339755945 0.8412400739273409 -1.696523877921953 0.8541197900860211 -1.6816014898473037 C 0.8953834371098333 -1.6337870609618292 0.9380576997805341 -1.5843401688648222 0.9826113880460507 -1.5385642260922099 C 0.9854398205595687 -1.5356583497787706 0.9853770399554218 -1.5310097740000712 0.982471163641983 -1.5281813414865528 C 0.9795652873285441 -1.5253529089730344 0.9749167115498443 -1.5254156895771809 0.9720882790363259 -1.5283215658906206 C 0.927229027144036 -1.5744156296993261 0.8844082613646076 -1.6240257681174861 0.8430022970351745 -1.672003443324114 C 0.8299534481315816 -1.6871525582506752 0.8168601997094889 -1.7022633724462488 0.8037227206836204 -1.7173356909676905 C 0.7780595618379287 -1.7467200287750222 0.7568500974973262 -1.7612615087669803 0.7406259246565579 -1.7606043376792608 C 0.7326310407231555 -1.7602694734307414 0.7257663236285061 -1.756066927111822 0.7196383078805997 -1.7477455505361132 C 0.7033555337963402 -1.7256277669214017 0.7180518885032385 -1.6687678175227947 0.7259463131620854 -1.6382198264516057 C 0.7270429935759868 -1.6339754221016216 0.7280434005184384 -1.630116111637434 0.7288638179273115 -1.6267423543336008 C 0.7511657768787086 -1.5352448842287605 0.7955478472168585 -1.4498670582656135 0.8572130985817199 -1.3798302006877652 C 0.859067871525252 -1.3777326038168098 0.8595663455518407 -1.3747619150012897 0.8584978236951535 -1.3721737966989553 C 0.8574293018384656 -1.3695856783966205 0.854980291122954 -1.367831878262868 0.8521859490508212 -1.367653699450976 C 0.782329081006552 -1.36304094442762 0.714406053997483 -1.3277295094212413 0.67049279360726 -1.273205238156058 C 0.6556290067761019 -1.2547458464564216 0.6435027351765903 -1.2340721649134507 0.6343651269951152 -1.2121092560136795 C 0.6553108857400085 -1.1800669332334723 0.6727949853158315 -1.1460740262056386 0.6863193151529117 -1.1108546788676028 C 0.6932928631283299 -1.0926966649916343 0.6992869331768286 -1.073199194121588 0.6959675913133792 -1.053638936204944 C 0.6925143037505219 -1.0332750040918537 0.67541111225739 -1.012199485450659 0.6527701032543667 -1.0121785564351264 Z M 0.6279189902111153 -1.1949349058677368 C 0.615047645658648 -1.1566389932464283 0.6109832308422429 -1.1153293023884445 0.616948000268996 -1.075551615467437 C 0.6196604006820039 -1.057464760244279 0.6302504825414321 -1.0268623537327053 0.6527282452233021 -1.0268623537327053 L 0.6527533600419411 -1.0268623537327053 C 0.6674455289457328 -1.0268790969451316 0.6791071764004237 -1.0420484474030638 0.6814930841711251 -1.056091816825349 C 0.6840673530816186 -1.0712737246926007 0.6798020197161017 -1.0868616554611825 0.6726108099791457 -1.1055931243627408 C 0.6607356865660239 -1.136509466107301 0.6457170250199256 -1.1664672589404752 0.6279189902111153 -1.1949349058677368" fill="#211c1d" transform="matrix(1,0,0,1,0,0)" fill-rule="nonzero"></path></g></g></g></g><defs><clipPath id="SvgjsClipPath99609"><path d=" M -1.071889607501702 -4.034858738058951 h 2.143779215003404 v 3.8473587380589502 h -2.143779215003404 Z"></path></clipPath><clipPath id="a91d362b6-d440-4c4d-9282-b7ece89ce54607dec017-1986-44e6-8914-9ab9e32a4a34"><path d=" M -1.0718896075017017 -0.18750000000000044 L 1.0718945683075551 -0.18750000000000044 L 1.0718945683075551 -4.034859996317919 L -1.0718896075017017 -4.034859996317919 Z"></path></clipPath><clipPath id="SvgjsClipPath9960707dec017-1986-44e6-8914-9ab9e32a4a34"><path d=" M -1.0718896075017017 -4.034858738058951 L 1.071889607501702 -4.034858738058951 L 1.071889607501702 -0.18750000000000044 L -1.0718896075017015 -0.18750000000000044 Z"></path></clipPath><clipPath id="b91d362b6-d440-4c4d-9282-b7ece89ce54607dec017-1986-44e6-8914-9ab9e32a4a34"><path d=" M -1.0718896075017017 -0.18750000000000044 L 1.0718945683075551 -0.18750000000000044 L 1.0718945683075551 -4.034859996317919 L -1.0718896075017017 -4.034859996317919 Z"></path></clipPath><clipPath id="c91d362b6-d440-4c4d-9282-b7ece89ce54607dec017-1986-44e6-8914-9ab9e32a4a34"><path d=" M -1.0718896075017017 -0.18750000000000044 L 1.0718945683075551 -0.18750000000000044 L 1.0718945683075551 -4.034859996317919 L -1.0718896075017017 -4.034859996317919 Z"></path></clipPath></defs></svg>